<svg xmlns="http://www.w3.org/2000/svg" width="40" zoomAndPan="magnify" viewBox="0 0 30 30" height="40" preserveAspectRatio="xMidYMid meet" xmlns:v="https://vecta.io/nano"><defs><clipPath id="A"><path d="M12 7h14.461v13H12zm0 0" clip-rule="nonzero"/></clipPath><clipPath id="B"><path d="M3.234 6.324H15V23H3.234zm0 0" clip-rule="nonzero"/></clipPath></defs><g clip-path="url(#A)"><path fill="#fff" d="M24.531 8.016l-2.437.148a27.55 27.55 0 0 1-4.742-.355c-.523-.086-.703-.012-.855.309l-1.926 3.988-.078.152c-.07.129-.223.188-.359.133l-1.727-.684c-.066-.027-.133.043-.102.105l2.629 5.422c.078.168.316.168.395 0l2.977-6.156c.125-.262.27-.355.555-.344l1.781.004h.953c.074 0 .125.078.094.148l-3.746 7.727-.371.762c-.07.145.125.262.219.133l.5-.676.617-.797 3.965-5.121 1.992-2.574 1-1.293c.246-.316.703-.738.883-1.121a.1.1 0 0 0-.078-.141c-.687-.086-1.465.16-2.137.23zm0 0"/></g><g clip-path="url(#B)"><path fill="#fff" d="M8.391 10.418c-.051-.113.027-.238.148-.238h3.867c.156 0 .199-.219.051-.277L3.461 6.34c-.141-.055-.273.09-.211.227l1.504 3.109c2.117 3.695 5.316 7.301 6.133 11.926.102.586.309.453.582.449.813-.02 1.574.645 2.387.645h.215c.125 0 .203-.129.148-.238L8.391 10.418zm0 0"/></g></svg>